<svg xmlns="http://www.w3.org/2000/svg" viewBox="0 0 240 180" fill="none" aria-hidden="true">
  <!-- Document backing -->
  <rect x="68" y="24" width="104" height="132" rx="8" fill="#1c1f2b" stroke="#2e3347" stroke-width="1.5"/>

  <!-- Issue row 1 (completed) -->
  <circle cx="94" cy="58" r="7" fill="none" stroke="#22c55e" stroke-width="1.75"/>
  <polyline points="90,58 93,61 98,55" stroke="#22c55e" stroke-width="1.75" stroke-linecap="round" stroke-linejoin="round"/>
  <rect x="108" y="54" width="44" height="4" rx="2" fill="#2e3347"/>
  <rect x="108" y="62" width="30" height="3" rx="1.5" fill="#2e3347" fill-opacity="0.5"/>

  <!-- Issue row 2 (completed) -->
  <circle cx="94" cy="88" r="7" fill="none" stroke="#22c55e" stroke-width="1.75"/>
  <polyline points="90,88 93,91 98,85" stroke="#22c55e" stroke-width="1.75" stroke-linecap="round" stroke-linejoin="round"/>
  <rect x="108" y="84" width="52" height="4" rx="2" fill="#2e3347"/>
  <rect x="108" y="92" width="36" height="3" rx="1.5" fill="#2e3347" fill-opacity="0.5"/>

  <!-- Issue row 3 (completed) -->
  <circle cx="94" cy="118" r="7" fill="none" stroke="#22c55e" stroke-width="1.75"/>
  <polyline points="90,118 93,121 98,115" stroke="#22c55e" stroke-width="1.75" stroke-linecap="round" stroke-linejoin="round"/>
  <rect x="108" y="114" width="38" height="4" rx="2" fill="#2e3347"/>
  <rect x="108" y="122" width="26" height="3" rx="1.5" fill="#2e3347" fill-opacity="0.5"/>

  <!-- GitHub-style octocat head hint (simple circle + ears) -->
  <circle cx="185" cy="34" r="12" fill="#1c1f2b" stroke="#6c8eff" stroke-width="1.5"/>
  <rect x="178" y="22" width="5" height="5" rx="2" fill="#1c1f2b" stroke="#6c8eff" stroke-width="1.25"/>
  <rect x="187" y="22" width="5" height="5" rx="2" fill="#1c1f2b" stroke="#6c8eff" stroke-width="1.25"/>
  <circle cx="185" cy="34" r="4" fill="#6c8eff" fill-opacity="0.2"/>

  <!-- Sparkle -->
  <line x1="44" y1="40" x2="44" y2="48" stroke="#6c8eff" stroke-width="1.5" stroke-linecap="round" stroke-opacity="0.45"/>
  <line x1="40" y1="44" x2="48" y2="44" stroke="#6c8eff" stroke-width="1.5" stroke-linecap="round" stroke-opacity="0.45"/>
  <line x1="56" y1="24" x2="56" y2="28" stroke="#94a3b8" stroke-width="1.25" stroke-linecap="round" stroke-opacity="0.35"/>
  <line x1="54" y1="26" x2="58" y2="26" stroke="#94a3b8" stroke-width="1.25" stroke-linecap="round" stroke-opacity="0.35"/>
</svg>
